<mxfile host="app.diagrams.net" agent="Mozilla/5.0 (Windows NT 10.0; Win64; x64) AppleWebKit/537.36 (KHTML, like Gecko) Chrome/135.0.0.0 Safari/537.36" version="26.2.14">
  <diagram name="Page-1" id="8F8cbBuCkkc4RBLRfRUM">
    <mxGraphModel dx="1389" dy="1848" grid="1" gridSize="10" guides="1" tooltips="1" connect="1" arrows="1" fold="1" page="1" pageScale="1" pageWidth="850" pageHeight="1100" math="0" shadow="0">
      <root>
        <mxCell id="0" />
        <mxCell id="1" parent="0" />
        <mxCell id="3amrzYr4FDlYCi6rH0tT-1" value="Quy trình báo cáo &amp;amp; giám sát" style="swimlane;childLayout=stackLayout;resizeParent=1;resizeParentMax=0;startSize=20;html=1;" parent="1" vertex="1">
          <mxGeometry x="250" y="-50" width="640" height="490" as="geometry" />
        </mxCell>
        <mxCell id="3amrzYr4FDlYCi6rH0tT-9" value="Hệ thống" style="swimlane;startSize=20;html=1;" parent="3amrzYr4FDlYCi6rH0tT-1" vertex="1">
          <mxGeometry y="20" width="220" height="470" as="geometry" />
        </mxCell>
        <mxCell id="3amrzYr4FDlYCi6rH0tT-11" style="edgeStyle=orthogonalEdgeStyle;rounded=0;orthogonalLoop=1;jettySize=auto;html=1;exitX=0.5;exitY=1;exitDx=0;exitDy=0;entryX=0.5;entryY=0;entryDx=0;entryDy=0;" parent="3amrzYr4FDlYCi6rH0tT-9" source="3amrzYr4FDlYCi6rH0tT-10" target="3amrzYr4FDlYCi6rH0tT-7" edge="1">
          <mxGeometry relative="1" as="geometry" />
        </mxCell>
        <mxCell id="3amrzYr4FDlYCi6rH0tT-10" value="Bắt đầu" style="ellipse;whiteSpace=wrap;html=1;aspect=fixed;" parent="3amrzYr4FDlYCi6rH0tT-9" vertex="1">
          <mxGeometry x="29.999999999999545" y="30" width="40" height="40" as="geometry" />
        </mxCell>
        <mxCell id="3amrzYr4FDlYCi6rH0tT-14" style="edgeStyle=orthogonalEdgeStyle;rounded=0;orthogonalLoop=1;jettySize=auto;html=1;exitX=0.5;exitY=1;exitDx=0;exitDy=0;" parent="3amrzYr4FDlYCi6rH0tT-9" source="3amrzYr4FDlYCi6rH0tT-7" target="3amrzYr4FDlYCi6rH0tT-12" edge="1">
          <mxGeometry relative="1" as="geometry" />
        </mxCell>
        <mxCell id="3amrzYr4FDlYCi6rH0tT-7" value="Tự động thu thập dữ liệu lớp học(Điểm,tỷ lệ hoàn thành,phản hồi từ học viên)" style="rounded=0;whiteSpace=wrap;html=1;" parent="3amrzYr4FDlYCi6rH0tT-9" vertex="1">
          <mxGeometry x="30" y="110" width="160" height="50" as="geometry" />
        </mxCell>
        <mxCell id="3amrzYr4FDlYCi6rH0tT-16" style="edgeStyle=orthogonalEdgeStyle;rounded=0;orthogonalLoop=1;jettySize=auto;html=1;exitX=0.5;exitY=1;exitDx=0;exitDy=0;entryX=0.5;entryY=0;entryDx=0;entryDy=0;" parent="3amrzYr4FDlYCi6rH0tT-9" source="3amrzYr4FDlYCi6rH0tT-12" target="3amrzYr4FDlYCi6rH0tT-15" edge="1">
          <mxGeometry relative="1" as="geometry" />
        </mxCell>
        <mxCell id="3amrzYr4FDlYCi6rH0tT-12" value="Tổng hợp dữ liệu thành báo cáo" style="rounded=0;whiteSpace=wrap;html=1;" parent="3amrzYr4FDlYCi6rH0tT-9" vertex="1">
          <mxGeometry x="30" y="220" width="160" height="40" as="geometry" />
        </mxCell>
        <mxCell id="3amrzYr4FDlYCi6rH0tT-15" value="Gửi báo cáo" style="rounded=0;whiteSpace=wrap;html=1;" parent="3amrzYr4FDlYCi6rH0tT-9" vertex="1">
          <mxGeometry x="29.999999999999545" y="310" width="160" height="40" as="geometry" />
        </mxCell>
        <mxCell id="3amrzYr4FDlYCi6rH0tT-20" style="edgeStyle=orthogonalEdgeStyle;rounded=0;orthogonalLoop=1;jettySize=auto;html=1;exitX=1;exitY=0.5;exitDx=0;exitDy=0;entryX=0;entryY=0.5;entryDx=0;entryDy=0;" parent="3amrzYr4FDlYCi6rH0tT-1" source="3amrzYr4FDlYCi6rH0tT-15" target="3amrzYr4FDlYCi6rH0tT-19" edge="1">
          <mxGeometry relative="1" as="geometry" />
        </mxCell>
        <mxCell id="3amrzYr4FDlYCi6rH0tT-3" value="Ban giám hiệu /Điều phối" style="swimlane;startSize=20;html=1;" parent="3amrzYr4FDlYCi6rH0tT-1" vertex="1">
          <mxGeometry x="220" y="20" width="220" height="470" as="geometry" />
        </mxCell>
        <mxCell id="3amrzYr4FDlYCi6rH0tT-19" value="Nhận và xem báo cáo" style="rounded=0;whiteSpace=wrap;html=1;" parent="3amrzYr4FDlYCi6rH0tT-3" vertex="1">
          <mxGeometry x="50" y="70" width="130" height="40" as="geometry" />
        </mxCell>
        <mxCell id="3amrzYr4FDlYCi6rH0tT-25" style="edgeStyle=orthogonalEdgeStyle;rounded=0;orthogonalLoop=1;jettySize=auto;html=1;exitX=0.5;exitY=1;exitDx=0;exitDy=0;" parent="3amrzYr4FDlYCi6rH0tT-3" source="3amrzYr4FDlYCi6rH0tT-22" edge="1">
          <mxGeometry relative="1" as="geometry">
            <mxPoint x="115" y="310" as="targetPoint" />
          </mxGeometry>
        </mxCell>
        <mxCell id="3amrzYr4FDlYCi6rH0tT-38" style="edgeStyle=orthogonalEdgeStyle;rounded=0;orthogonalLoop=1;jettySize=auto;html=1;exitX=1;exitY=0.5;exitDx=0;exitDy=0;" parent="3amrzYr4FDlYCi6rH0tT-3" source="3amrzYr4FDlYCi6rH0tT-22" edge="1">
          <mxGeometry relative="1" as="geometry">
            <mxPoint x="250" y="210" as="targetPoint" />
          </mxGeometry>
        </mxCell>
        <mxCell id="3amrzYr4FDlYCi6rH0tT-22" value="Có điều chỉnh không?" style="rhombus;whiteSpace=wrap;html=1;" parent="3amrzYr4FDlYCi6rH0tT-3" vertex="1">
          <mxGeometry x="60" y="170" width="110" height="80" as="geometry" />
        </mxCell>
        <mxCell id="3amrzYr4FDlYCi6rH0tT-21" style="edgeStyle=orthogonalEdgeStyle;rounded=0;orthogonalLoop=1;jettySize=auto;html=1;exitX=0.5;exitY=1;exitDx=0;exitDy=0;" parent="3amrzYr4FDlYCi6rH0tT-3" source="3amrzYr4FDlYCi6rH0tT-19" target="3amrzYr4FDlYCi6rH0tT-22" edge="1">
          <mxGeometry relative="1" as="geometry">
            <mxPoint x="115" y="160" as="targetPoint" />
          </mxGeometry>
        </mxCell>
        <mxCell id="3amrzYr4FDlYCi6rH0tT-30" value="Có" style="text;html=1;align=center;verticalAlign=middle;whiteSpace=wrap;rounded=0;" parent="3amrzYr4FDlYCi6rH0tT-3" vertex="1">
          <mxGeometry x="100" y="260" width="60" height="30" as="geometry" />
        </mxCell>
        <mxCell id="3amrzYr4FDlYCi6rH0tT-24" value="Ra quyết định điều chỉnh" style="rounded=0;whiteSpace=wrap;html=1;" parent="3amrzYr4FDlYCi6rH0tT-3" vertex="1">
          <mxGeometry x="50" y="310" width="130" height="40" as="geometry" />
        </mxCell>
        <mxCell id="3amrzYr4FDlYCi6rH0tT-31" value="Không" style="text;html=1;align=center;verticalAlign=middle;whiteSpace=wrap;rounded=0;" parent="3amrzYr4FDlYCi6rH0tT-3" vertex="1">
          <mxGeometry x="170" y="180" width="60" height="30" as="geometry" />
        </mxCell>
        <mxCell id="3amrzYr4FDlYCi6rH0tT-4" value="Giảng viên" style="swimlane;startSize=20;html=1;" parent="3amrzYr4FDlYCi6rH0tT-1" vertex="1">
          <mxGeometry x="440" y="20" width="200" height="470" as="geometry" />
        </mxCell>
        <mxCell id="3amrzYr4FDlYCi6rH0tT-40" style="edgeStyle=orthogonalEdgeStyle;rounded=0;orthogonalLoop=1;jettySize=auto;html=1;exitX=0.5;exitY=1;exitDx=0;exitDy=0;" parent="3amrzYr4FDlYCi6rH0tT-4" source="3amrzYr4FDlYCi6rH0tT-39" edge="1">
          <mxGeometry relative="1" as="geometry">
            <mxPoint x="95" y="390" as="targetPoint" />
          </mxGeometry>
        </mxCell>
        <mxCell id="3amrzYr4FDlYCi6rH0tT-39" value="Thực hiện điều chỉnh (Nếu cần)" style="rounded=0;whiteSpace=wrap;html=1;" parent="3amrzYr4FDlYCi6rH0tT-4" vertex="1">
          <mxGeometry x="30" y="190" width="130" height="40" as="geometry" />
        </mxCell>
        <mxCell id="3amrzYr4FDlYCi6rH0tT-43" value="Kết thúc" style="ellipse;whiteSpace=wrap;html=1;aspect=fixed;" parent="3amrzYr4FDlYCi6rH0tT-4" vertex="1">
          <mxGeometry x="70" y="390" width="50" height="50" as="geometry" />
        </mxCell>
        <mxCell id="3amrzYr4FDlYCi6rH0tT-42" style="edgeStyle=orthogonalEdgeStyle;rounded=0;orthogonalLoop=1;jettySize=auto;html=1;exitX=0.5;exitY=1;exitDx=0;exitDy=0;entryX=0.25;entryY=1;entryDx=0;entryDy=0;" parent="3amrzYr4FDlYCi6rH0tT-1" source="3amrzYr4FDlYCi6rH0tT-24" target="3amrzYr4FDlYCi6rH0tT-39" edge="1">
          <mxGeometry relative="1" as="geometry" />
        </mxCell>
        <mxCell id="ijBZllFBK7VAiEM7aZ2z-25" style="edgeStyle=orthogonalEdgeStyle;rounded=0;orthogonalLoop=1;jettySize=auto;html=1;exitX=1;exitY=0.5;exitDx=0;exitDy=0;" edge="1" parent="1" source="ijBZllFBK7VAiEM7aZ2z-2" target="ijBZllFBK7VAiEM7aZ2z-24">
          <mxGeometry relative="1" as="geometry" />
        </mxCell>
        <mxCell id="ijBZllFBK7VAiEM7aZ2z-35" style="edgeStyle=orthogonalEdgeStyle;rounded=0;orthogonalLoop=1;jettySize=auto;html=1;exitX=0.5;exitY=1;exitDx=0;exitDy=0;" edge="1" parent="1" source="ijBZllFBK7VAiEM7aZ2z-2">
          <mxGeometry relative="1" as="geometry">
            <mxPoint x="630" y="1060" as="targetPoint" />
          </mxGeometry>
        </mxCell>
        <mxCell id="ijBZllFBK7VAiEM7aZ2z-2" value="Tiến trình tổng hợp và tạo báo cáo" style="ellipse;whiteSpace=wrap;html=1;aspect=fixed;" vertex="1" parent="1">
          <mxGeometry x="580" y="870" width="100" height="100" as="geometry" />
        </mxCell>
        <mxCell id="ijBZllFBK7VAiEM7aZ2z-5" style="edgeStyle=orthogonalEdgeStyle;rounded=0;orthogonalLoop=1;jettySize=auto;html=1;exitX=0.5;exitY=1;exitDx=0;exitDy=0;" edge="1" parent="1" source="ijBZllFBK7VAiEM7aZ2z-3" target="ijBZllFBK7VAiEM7aZ2z-2">
          <mxGeometry relative="1" as="geometry" />
        </mxCell>
        <mxCell id="ijBZllFBK7VAiEM7aZ2z-3" value="Hệ thống Google Classroom" style="rounded=0;whiteSpace=wrap;html=1;" vertex="1" parent="1">
          <mxGeometry x="570" y="720" width="120" height="60" as="geometry" />
        </mxCell>
        <mxCell id="ijBZllFBK7VAiEM7aZ2z-7" style="edgeStyle=orthogonalEdgeStyle;rounded=0;orthogonalLoop=1;jettySize=auto;html=1;exitX=1;exitY=0.5;exitDx=0;exitDy=0;" edge="1" parent="1" source="ijBZllFBK7VAiEM7aZ2z-6" target="ijBZllFBK7VAiEM7aZ2z-3">
          <mxGeometry relative="1" as="geometry" />
        </mxCell>
        <mxCell id="ijBZllFBK7VAiEM7aZ2z-17" style="edgeStyle=orthogonalEdgeStyle;rounded=0;orthogonalLoop=1;jettySize=auto;html=1;exitX=0.5;exitY=1;exitDx=0;exitDy=0;" edge="1" parent="1" source="ijBZllFBK7VAiEM7aZ2z-6" target="ijBZllFBK7VAiEM7aZ2z-12">
          <mxGeometry relative="1" as="geometry" />
        </mxCell>
        <mxCell id="ijBZllFBK7VAiEM7aZ2z-6" value="Giảng viên" style="rounded=0;whiteSpace=wrap;html=1;" vertex="1" parent="1">
          <mxGeometry x="290" y="720" width="120" height="60" as="geometry" />
        </mxCell>
        <mxCell id="ijBZllFBK7VAiEM7aZ2z-8" value="Điểm ,Phản hồi của HV" style="text;html=1;align=center;verticalAlign=middle;whiteSpace=wrap;rounded=0;" vertex="1" parent="1">
          <mxGeometry x="420" y="720" width="140" height="30" as="geometry" />
        </mxCell>
        <mxCell id="ijBZllFBK7VAiEM7aZ2z-9" value="Dữ liệu lớp học" style="text;html=1;align=center;verticalAlign=middle;whiteSpace=wrap;rounded=0;" vertex="1" parent="1">
          <mxGeometry x="430" y="760" width="100" height="30" as="geometry" />
        </mxCell>
        <mxCell id="ijBZllFBK7VAiEM7aZ2z-12" value="CSDL Học tập" style="rounded=0;whiteSpace=wrap;html=1;" vertex="1" parent="1">
          <mxGeometry x="290" y="880" width="120" height="60" as="geometry" />
        </mxCell>
        <mxCell id="ijBZllFBK7VAiEM7aZ2z-19" value="Truy xuất dữ liệu" style="text;html=1;align=center;verticalAlign=middle;whiteSpace=wrap;rounded=0;" vertex="1" parent="1">
          <mxGeometry x="350" y="820" width="100" height="30" as="geometry" />
        </mxCell>
        <mxCell id="ijBZllFBK7VAiEM7aZ2z-21" style="edgeStyle=orthogonalEdgeStyle;rounded=0;orthogonalLoop=1;jettySize=auto;html=1;exitX=1;exitY=0.5;exitDx=0;exitDy=0;entryX=0.038;entryY=0.408;entryDx=0;entryDy=0;entryPerimeter=0;" edge="1" parent="1" source="ijBZllFBK7VAiEM7aZ2z-12" target="ijBZllFBK7VAiEM7aZ2z-2">
          <mxGeometry relative="1" as="geometry" />
        </mxCell>
        <mxCell id="ijBZllFBK7VAiEM7aZ2z-22" value="Điểm,Phản hồi của HV" style="rounded=0;whiteSpace=wrap;html=1;" vertex="1" parent="1">
          <mxGeometry x="430" y="920" width="130" height="30" as="geometry" />
        </mxCell>
        <mxCell id="ijBZllFBK7VAiEM7aZ2z-34" style="edgeStyle=orthogonalEdgeStyle;rounded=0;orthogonalLoop=1;jettySize=auto;html=1;exitX=0.5;exitY=1;exitDx=0;exitDy=0;entryX=1;entryY=0.5;entryDx=0;entryDy=0;" edge="1" parent="1" source="ijBZllFBK7VAiEM7aZ2z-24" target="ijBZllFBK7VAiEM7aZ2z-33">
          <mxGeometry relative="1" as="geometry" />
        </mxCell>
        <mxCell id="ijBZllFBK7VAiEM7aZ2z-24" value="Ban giám hiệu/Điều phối" style="rounded=0;whiteSpace=wrap;html=1;" vertex="1" parent="1">
          <mxGeometry x="820" y="890" width="120" height="60" as="geometry" />
        </mxCell>
        <mxCell id="ijBZllFBK7VAiEM7aZ2z-28" value="Báo cáo" style="text;html=1;align=center;verticalAlign=middle;whiteSpace=wrap;rounded=0;" vertex="1" parent="1">
          <mxGeometry x="710" y="880" width="60" height="30" as="geometry" />
        </mxCell>
        <mxCell id="ijBZllFBK7VAiEM7aZ2z-33" value="CSDL Phản hồi" style="rounded=0;whiteSpace=wrap;html=1;" vertex="1" parent="1">
          <mxGeometry x="290" y="1030" width="120" height="60" as="geometry" />
        </mxCell>
        <mxCell id="ijBZllFBK7VAiEM7aZ2z-37" value="Dữ liệu học tập ,Phản hồi của HV" style="text;html=1;align=center;verticalAlign=middle;whiteSpace=wrap;rounded=0;" vertex="1" parent="1">
          <mxGeometry x="640" y="1000" width="100" height="30" as="geometry" />
        </mxCell>
      </root>
    </mxGraphModel>
  </diagram>
</mxfile>
